<svg xmlns="http://www.w3.org/2000/svg" viewBox="0 0 64 64" role="img" aria-label="House of Paths favicon">
  <defs>
    <linearGradient id="paper" x1="0" y1="0" x2="1" y2="1">
      <stop offset="0" stop-color="#f7f1de"/>
      <stop offset="1" stop-color="#eadfc5"/>
    </linearGradient>
  </defs>

  <rect x="2" y="2" width="60" height="60" rx="14" fill="url(#paper)"/>

  <path
    d="M10 44 C18 42, 24 40, 30 38 C35 36, 38 33, 40 30 M40 30 C45 24, 50 20, 56 18 M40 30 C45 34, 50 38, 56 42"
    fill="none"
    stroke="#1f1f1b"
    stroke-width="10"
    stroke-linecap="round"
    stroke-linejoin="round"
  />

  <path
    d="M10 44 C18 42, 24 40, 30 38 C35 36, 38 33, 40 30 M40 30 C45 24, 50 20, 56 18 M40 30 C45 34, 50 38, 56 42"
    fill="none"
    stroke="#f3e8c8"
    stroke-width="7"
    stroke-linecap="round"
    stroke-linejoin="round"
  />

  <circle cx="28" cy="38.5" r="6" fill="#2f78da" stroke="#1d4fa1" stroke-width="2"/>
</svg>
